<svg version="1.1" xmlns="http://www.w3.org/2000/svg" viewBox="0 0 2888.244406754603 1543.1310151689597" width="2888.244406754603" height="1543.1310151689597">
  <!-- svg-source:excalidraw -->
  
  <defs>
    <style class="style-fonts">
      @font-face {
        font-family: "Virgil";
        src: url("https://excalidraw.com/Virgil.woff2");
      }
      @font-face {
        font-family: "Cascadia";
        src: url("https://excalidraw.com/Cascadia.woff2");
      }
      @font-face {
        font-family: "Assistant";
        src: url("https://excalidraw.com/Assistant-Regular.woff2");
      }
    </style>
    
  </defs>
  <rect x="0" y="0" width="2888.244406754603" height="1543.1310151689597" fill="#ffffff"></rect><g stroke-linecap="round" transform="translate(534.4996073036907 438.2639133690953) rotate(0 110.40000915527344 63.19998931884765)"><path d="M31.6 0 C65.26 -0.54, 95.16 -2.79, 189.2 0 M31.6 0 C65.92 -0.69, 101.7 0.08, 189.2 0 M189.2 0 C211.35 -1.8, 219.97 8.69, 220.8 31.6 M189.2 0 C208.32 -2.14, 219.44 11.1, 220.8 31.6 M220.8 31.6 C221.09 47.17, 222.83 66.5, 220.8 94.8 M220.8 31.6 C220.47 45.34, 220.43 59.2, 220.8 94.8 M220.8 94.8 C221.86 114.68, 210.57 126.64, 189.2 126.4 M220.8 94.8 C222.34 114.93, 212.49 128.63, 189.2 126.4 M189.2 126.4 C132.07 126.58, 77.7 129.55, 31.6 126.4 M189.2 126.4 C135.94 126.52, 81.4 127.2, 31.6 126.4 M31.6 126.4 C11.31 127.33, -0.7 117.42, 0 94.8 M31.6 126.4 C11.22 124.99, 0.91 116.86, 0 94.8 M0 94.8 C-1.15 81.97, -0.87 70.66, 0 31.6 M0 94.8 C-1.4 74.9, -1.4 55.28, 0 31.6 M0 31.6 C-1.43 12.4, 9.03 0.04, 31.6 0 M0 31.6 C-1.47 10.68, 11.28 0.53, 31.6 0" stroke="#1e1e1e" stroke-width="2" fill="none"></path></g><g stroke-linecap="round" transform="translate(10 311.4594706843857) rotate(0 396.37337575897766 598.2915230510706)"><path d="M32 0 C223.18 -1.41, 412.23 -1.83, 760.75 0 M32 0 C184.45 -2.88, 336.5 -2.31, 760.75 0 M760.75 0 C783.8 -0.09, 792.48 9.53, 792.75 32 M760.75 0 C780.55 1.75, 792.34 11.82, 792.75 32 M792.75 32 C793.63 383.98, 793.34 734.95, 792.75 1164.58 M792.75 32 C791.1 273.89, 791.28 515.95, 792.75 1164.58 M792.75 1164.58 C790.96 1184, 781.11 1198, 760.75 1196.58 M792.75 1164.58 C791.64 1185.41, 780.82 1196.85, 760.75 1196.58 M760.75 1196.58 C471.32 1194.89, 182.13 1194.38, 32 1196.58 M760.75 1196.58 C479.69 1196.93, 198.44 1196.48, 32 1196.58 M32 1196.58 C9.66 1196.76, 0.11 1184.99, 0 1164.58 M32 1196.58 C10.81 1195.61, 1.52 1187.86, 0 1164.58 M0 1164.58 C-2.84 778.69, -4.33 394.78, 0 32 M0 1164.58 C-1.47 767.1, -1.56 369.24, 0 32 M0 32 C-0.19 8.98, 12.63 -0.4, 32 0 M0 32 C0.95 8.44, 11.11 1.65, 32 0" stroke="#1e1e1e" stroke-width="2" fill="none"></path></g><g transform="translate(232.94468799204975 347.49236179618896) rotate(0 171.71995544433594 28.125588577617386)"><text x="0" y="39.42082495038853" font-family="Virgil, Segoe UI Emoji" font-size="45.00094172418782px" fill="#1e1e1e" text-anchor="start" style="white-space: pre;" direction="ltr" dominant-baseline="alphabetic">Frontend React</text></g><g stroke-linecap="round"><g transform="translate(757.0329697982655 500.03877952952683) rotate(0 75.547320320609 -0.7759634971732154)"><path d="M-0.61 -0.37 C24.41 -0.66, 124.61 -1.92, 149.99 -2.11 M1.27 -1.62 C26.65 -1.71, 127.14 -1.1, 152.13 -0.86" stroke="#1e1e1e" stroke-width="2" fill="none"></path></g><g transform="translate(757.0329697982655 500.03877952952683) rotate(0 75.547320320609 -0.7759634971732154)"><path d="M128.57 7.52 C134.86 3.36, 141.44 3.71, 152.13 -0.86 M128.57 7.52 C134.79 5, 143.83 1.34, 152.13 -0.86" stroke="#1e1e1e" stroke-width="2" fill="none"></path></g><g transform="translate(757.0329697982655 500.03877952952683) rotate(0 75.547320320609 -0.7759634971732154)"><path d="M128.7 -9.58 C134.89 -8.75, 141.43 -3.4, 152.13 -0.86 M128.7 -9.58 C134.96 -6.89, 143.96 -5.35, 152.13 -0.86" stroke="#1e1e1e" stroke-width="2" fill="none"></path></g></g><mask></mask><g stroke-linecap="round" transform="translate(1991.4682910851773 305.80038687425224) rotate(0 443.38805783471275 613.6653141473537)"><path d="M32 0 C328.59 -3.02, 626.21 -3.93, 854.78 0 M32 0 C268.77 2.06, 506.18 2.29, 854.78 0 M854.78 0 C876.5 -0.46, 885.25 9.37, 886.78 32 M854.78 0 C875.86 1.12, 884.48 8.45, 886.78 32 M886.78 32 C885.74 318.27, 886.45 603.83, 886.78 1195.33 M886.78 32 C890.59 363.39, 890.57 694.91, 886.78 1195.33 M886.78 1195.33 C886.75 1214.68, 876.47 1228.81, 854.78 1227.33 M886.78 1195.33 C887.56 1218.03, 878.31 1228.37, 854.78 1227.33 M854.78 1227.33 C611.37 1227.69, 367.83 1226.68, 32 1227.33 M854.78 1227.33 C585.95 1223.83, 316.66 1224.01, 32 1227.33 M32 1227.33 C8.93 1228.42, 1.57 1217.98, 0 1195.33 M32 1227.33 C8.8 1229.46, 2.14 1217.32, 0 1195.33 M0 1195.33 C0.87 792.22, 0.19 388.49, 0 32 M0 1195.33 C2.4 789.08, 2.47 382.49, 0 32 M0 32 C-0.74 10.17, 11.65 0.67, 32 0 M0 32 C-1.26 12.77, 12.25 -1.11, 32 0" stroke="#1e1e1e" stroke-width="2" fill="none"></path></g><g transform="translate(2058.4058207373014 340.04188739220285) rotate(0 170.5689392089845 25.823981942851304)"><text x="0" y="36.19489309110038" font-family="Virgil, Segoe UI Emoji" font-size="41.31837110856208px" fill="#1e1e1e" text-anchor="start" style="white-space: pre;" direction="ltr" dominant-baseline="alphabetic">Express Backend</text></g><g stroke-linecap="round" transform="translate(916.1276240028516 381.78777278630423) rotate(0 269.80365780980065 136.00000169542102)"><path d="M32 0 C176.76 -1.09, 319.88 0.25, 507.61 0 M32 0 C142.26 1.37, 252.84 1.04, 507.61 0 M507.61 0 C530.62 -1.61, 541.49 10.65, 539.61 32 M507.61 0 C530.46 -1.6, 538.36 12.73, 539.61 32 M539.61 32 C538.92 103.68, 541.48 177.67, 539.61 240 M539.61 32 C538.94 80.2, 538.02 128.53, 539.61 240 M539.61 240 C538.56 261.89, 530.77 272.19, 507.61 272 M539.61 240 C538.23 260.01, 527.28 272.76, 507.61 272 M507.61 272 C317.85 271.16, 128.55 269.75, 32 272 M507.61 272 C388.03 271.07, 267.4 271.43, 32 272 M32 272 C11.29 270.39, -1.25 260.22, 0 240 M32 272 C10.12 271.44, 0.31 262.59, 0 240 M0 240 C2.22 165.14, 0.46 88.03, 0 32 M0 240 C0.81 171.98, -0.51 101.89, 0 32 M0 32 C1.09 11.65, 11.55 0.96, 32 0 M0 32 C-0.21 10.64, 11.62 1.85, 32 0" stroke="#1e1e1e" stroke-width="2" fill="none"></path></g><g transform="translate(1001.5080187387321 395.53998475165514) rotate(0 79.68993377685547 12.5)"><text x="0" y="17.52" font-family="Virgil, Segoe UI Emoji" font-size="20px" fill="#1e1e1e" text-anchor="start" style="white-space: pre;" direction="ltr" dominant-baseline="alphabetic">Auth Middleware</text></g><g transform="translate(1035.3150420988786 465.3914069170688) rotate(0 57.52484130859375 10.213093499374914)"><text x="0" y="7.15733592436194" font-family="Virgil, Segoe UI Emoji" font-size="8.170474799499932px" fill="#1e1e1e" text-anchor="start" style="white-space: pre;" direction="ltr" dominant-baseline="alphabetic">Checks if token is present in</text><text x="0" y="17.37042942373685" font-family="Virgil, Segoe UI Emoji" font-size="8.170474799499932px" fill="#1e1e1e" text-anchor="start" style="white-space: pre;" direction="ltr" dominant-baseline="alphabetic">Cookie</text></g><g stroke-linecap="round" transform="translate(1006.5818092299969 422.66604794130984) rotate(0 83.88637053813909 51.02054751141634)"><path d="M105 13 C120.65 21.32, 139.89 35.44, 146.77 39 M105 13 C120.27 21.64, 133.43 30.13, 146.77 39 M146.77 39 C165.89 51.84, 167.68 52.1, 146.77 65 M146.77 39 C167.33 54.26, 168.36 54.01, 146.77 65 M146.77 65 C133.73 74.58, 116.69 82.74, 105 89.04 M146.77 65 C132.11 74.77, 116.75 81.67, 105 89.04 M105 89.04 C83.52 102.02, 86 103.54, 63 89.04 M105 89.04 C85.29 103.25, 84.77 101.56, 63 89.04 M63 89.04 C49.68 82.33, 39.29 73.19, 21 65 M63 89.04 C53.67 82.75, 43.41 78, 21 65 M21 65 C-1.53 50.1, 1.87 53.9, 21 39 M21 65 C-1.84 52.13, 0.46 51.19, 21 39 M21 39 C35.69 29.18, 52.32 18.85, 63 13 M21 39 C31.47 31.65, 42.01 25.49, 63 13 M63 13 C84.04 -1.51, 85.27 -1.17, 105 13 M63 13 C84.63 -2, 84.96 -0.17, 105 13" stroke="#1e1e1e" stroke-width="2" fill="none"></path></g><g stroke-linecap="round"><g transform="translate(1169.0799267924963 475.44587283175446) rotate(0 54.239214365269845 1.9337724473425357)"><path d="M-0.69 -0.13 C17.35 0.63, 89.8 2.83, 108.13 3.54 M1.15 -1.24 C19.02 -0.22, 89.04 3.77, 107 4.91" stroke="#1e1e1e" stroke-width="2" fill="none"></path></g><g transform="translate(1169.0799267924963 475.44587283175446) rotate(0 54.239214365269845 1.9337724473425357)"><path d="M83.04 12.05 C89.85 9.53, 96.49 9.38, 107 4.91 M83.04 12.05 C91.46 8.74, 98.16 7.48, 107 4.91" stroke="#1e1e1e" stroke-width="2" fill="none"></path></g><g transform="translate(1169.0799267924963 475.44587283175446) rotate(0 54.239214365269845 1.9337724473425357)"><path d="M84.06 -5.03 C90.44 -2.58, 96.78 2.23, 107 4.91 M84.06 -5.03 C91.99 -2.81, 98.36 1.45, 107 4.91" stroke="#1e1e1e" stroke-width="2" fill="none"></path></g></g><mask></mask><g transform="translate(1198.9173941432373 455.04621340043684) rotate(0 9.338394165039062 7.490042528975776)"><text x="0" y="10.498043608612448" font-family="Virgil, Segoe UI Emoji" font-size="11.98406804636124px" fill="#1e1e1e" text-anchor="start" style="white-space: pre;" direction="ltr" dominant-baseline="alphabetic">yes</text></g><g stroke-linecap="round"><g transform="translate(1092.1128078072593 521.4945982577485) rotate(0 -146.35610093961589 46.25370016286808)"><path d="M0.84 1.14 C-6 13.72, 8.81 61.07, -40.19 76.18 C-89.18 91.29, -251.21 89, -293.13 91.8 M-0.18 0.69 C-6.73 12.92, 10.97 59.34, -38.02 74.68 C-87 90.03, -251.36 89.47, -294.11 92.74" stroke="#1e1e1e" stroke-width="2" fill="none"></path></g><g transform="translate(1092.1128078072593 521.4945982577485) rotate(0 -146.35610093961589 46.25370016286808)"><path d="M-270.96 83.31 C-277.57 85.25, -286.03 89.75, -294.11 92.74 M-270.96 83.31 C-276.76 85.54, -282.58 88.86, -294.11 92.74" stroke="#1e1e1e" stroke-width="2" fill="none"></path></g><g transform="translate(1092.1128078072593 521.4945982577485) rotate(0 -146.35610093961589 46.25370016286808)"><path d="M-270.31 100.4 C-277.26 96.02, -285.95 94.21, -294.11 92.74 M-270.31 100.4 C-276.42 98.52, -282.4 97.72, -294.11 92.74" stroke="#1e1e1e" stroke-width="2" fill="none"></path></g></g><mask></mask><g transform="translate(1112.88369694237 538.1707761259779) rotate(0 7.176017761230469 7.490042528975778)"><text x="0" y="10.498043608612448" font-family="Virgil, Segoe UI Emoji" font-size="11.98406804636124px" fill="#1e1e1e" text-anchor="start" style="white-space: pre;" direction="ltr" dominant-baseline="alphabetic">No</text></g><g stroke-linecap="round" transform="translate(1282.7000916356822 439.1951778905524) rotate(0 61.262007358138476 42.603519137934256)"><path d="M21.3 0 C37.41 0.08, 56.81 -0.22, 101.22 0 M21.3 0 C49.21 -1.31, 77.08 -1.71, 101.22 0 M101.22 0 C116.31 -1.68, 123.86 8.53, 122.52 21.3 M101.22 0 C113.28 1.15, 124.61 8.06, 122.52 21.3 M122.52 21.3 C123.47 32.65, 121.66 49.22, 122.52 63.91 M122.52 21.3 C121.99 35.71, 122.53 48.36, 122.52 63.91 M122.52 63.91 C120.61 77.35, 116.42 84.44, 101.22 85.21 M122.52 63.91 C122.63 75.83, 117.19 86.45, 101.22 85.21 M101.22 85.21 C78.45 83.82, 55.66 85.95, 21.3 85.21 M101.22 85.21 C69.04 84.84, 38.57 84.76, 21.3 85.21 M21.3 85.21 C7.96 86.43, 1.74 79.23, 0 63.91 M21.3 85.21 C6.62 84, 1.33 78.03, 0 63.91 M0 63.91 C1.01 56.76, 1.32 48.07, 0 21.3 M0 63.91 C0.29 49.16, 0.75 36.19, 0 21.3 M0 21.3 C-0.32 5.46, 5.35 1.53, 21.3 0 M0 21.3 C-0.18 6.26, 5.72 0.7, 21.3 0" stroke="#1e1e1e" stroke-width="2" fill="none"></path></g><g transform="translate(1290.9429690038064 460.5459860866526) rotate(0 55.44966125488281 20.426186998749827)"><text x="0" y="7.15733592436194" font-family="Virgil, Segoe UI Emoji" font-size="8.170474799499932px" fill="#1e1e1e" text-anchor="start" style="white-space: pre;" direction="ltr" dominant-baseline="alphabetic">verify token and decode it </text><text x="0" y="17.37042942373685" font-family="Virgil, Segoe UI Emoji" font-size="8.170474799499932px" fill="#1e1e1e" text-anchor="start" style="white-space: pre;" direction="ltr" dominant-baseline="alphabetic">then get user info without </text><text x="0" y="27.583522923111765" font-family="Virgil, Segoe UI Emoji" font-size="8.170474799499932px" fill="#1e1e1e" text-anchor="start" style="white-space: pre;" direction="ltr" dominant-baseline="alphabetic">password; gets user as </text><text x="0" y="37.79661642248668" font-family="Virgil, Segoe UI Emoji" font-size="8.170474799499932px" fill="#1e1e1e" text-anchor="start" style="white-space: pre;" direction="ltr" dominant-baseline="alphabetic">data</text></g><g stroke-linecap="round"><g transform="translate(1340.0914359838146 525.7825561831557) rotate(0 -266.08259888884277 118.80374615399668)"><path d="M0.35 0.51 C-6.58 33.65, 48.03 158.93, -40.58 198.42 C-129.19 237.91, -449.22 230.99, -531.31 237.44 M-0.92 -0.27 C-8.14 32.59, 46.66 156.96, -41.79 196.78 C-130.24 236.61, -449.7 231.81, -531.63 238.68" stroke="#1e1e1e" stroke-width="2" fill="none"></path></g><g transform="translate(1340.0914359838146 525.7825561831557) rotate(0 -266.08259888884277 118.80374615399668)"><path d="M-508.46 229.28 C-516.49 232.1, -524.64 237.95, -531.63 238.68 M-508.46 229.28 C-515.71 231.72, -520.95 235.1, -531.63 238.68" stroke="#1e1e1e" stroke-width="2" fill="none"></path></g><g transform="translate(1340.0914359838146 525.7825561831557) rotate(0 -266.08259888884277 118.80374615399668)"><path d="M-507.84 246.37 C-516.04 242.67, -524.43 241.99, -531.63 238.68 M-507.84 246.37 C-515.13 243.91, -520.55 242.4, -531.63 238.68" stroke="#1e1e1e" stroke-width="2" fill="none"></path></g></g><mask></mask><g transform="translate(570.9567888585229 484.6649650210565) rotate(0 83.35994720458984 20)"><text x="0" y="14.016" font-family="Virgil, Segoe UI Emoji" font-size="16px" fill="#1e1e1e" text-anchor="start" style="white-space: pre;" direction="ltr" dominant-baseline="alphabetic">Accessing Protected </text><text x="0" y="34.016" font-family="Virgil, Segoe UI Emoji" font-size="16px" fill="#1e1e1e" text-anchor="start" style="white-space: pre;" direction="ltr" dominant-baseline="alphabetic">Routes in Backend</text></g><g transform="translate(1072.920201454317 697.8210149413281) rotate(0 91.67194366455084 10)"><text x="0" y="14.016" font-family="Virgil, Segoe UI Emoji" font-size="16px" fill="#1e1e1e" text-anchor="start" style="white-space: pre;" direction="ltr" dominant-baseline="alphabetic">if not found or verified</text></g><g stroke-linecap="round"><g transform="translate(1406.6548835505503 481.1276703914859) rotate(0 314.9434830601426 42.907777666448034)"><path d="M1.15 -0.65 C106.15 13.47, 525.14 70.13, 629.97 84.7 M0.3 1.63 C105.14 15.86, 524.2 71.77, 629.07 85.64" stroke="#1e1e1e" stroke-width="2" fill="none"></path></g><g transform="translate(1406.6548835505503 481.1276703914859) rotate(0 314.9434830601426 42.907777666448034)"><path d="M604.65 91.02 C610.88 89.32, 617.4 88, 629.07 85.64 M604.65 91.02 C614.47 88.98, 623.92 87.71, 629.07 85.64" stroke="#1e1e1e" stroke-width="2" fill="none"></path></g><g transform="translate(1406.6548835505503 481.1276703914859) rotate(0 314.9434830601426 42.907777666448034)"><path d="M606.91 74.07 C612.46 77.46, 618.3 81.21, 629.07 85.64 M606.91 74.07 C616 78.4, 624.61 83.51, 629.07 85.64" stroke="#1e1e1e" stroke-width="2" fill="none"></path></g></g><mask></mask><g transform="translate(1548.8263803206085 479.3896335446275) rotate(8.182424779664196 156.83990478515625 10)"><text x="0" y="14.016" font-family="Virgil, Segoe UI Emoji" font-size="16px" fill="#1e1e1e" text-anchor="start" style="white-space: pre;" direction="ltr" dominant-baseline="alphabetic">if verified then sends to specfic routes</text></g><g stroke-linecap="round" transform="translate(533.2951128109214 838.2858019845439) rotate(0 106.53455697712386 70.57911701004465)"><path d="M32 0 C85.64 -0.77, 137.99 -0.48, 181.07 0 M32 0 C91.33 2.03, 151.38 1.41, 181.07 0 M181.07 0 C200.68 -1.33, 214.31 10.01, 213.07 32 M181.07 0 C202.44 -1.03, 213.36 10.83, 213.07 32 M213.07 32 C210.92 61.59, 213.81 92.74, 213.07 109.16 M213.07 32 C212.29 55.72, 213.37 77.2, 213.07 109.16 M213.07 109.16 C211.34 130.09, 203.39 142.4, 181.07 141.16 M213.07 109.16 C213.5 130.21, 203.21 141.2, 181.07 141.16 M181.07 141.16 C143.51 140.25, 103.56 140.56, 32 141.16 M181.07 141.16 C123.96 142.57, 65.3 141.99, 32 141.16 M32 141.16 C12.31 139.39, -0.06 131.51, 0 109.16 M32 141.16 C12.66 139.19, -1.28 130.1, 0 109.16 M0 109.16 C1.09 83.38, 1.1 52.91, 0 32 M0 109.16 C-1.15 84.39, -0.92 57.16, 0 32 M0 32 C1.65 9.06, 9.26 -0.15, 32 0 M0 32 C0.17 12.84, 11.48 -1.21, 32 0" stroke="#1e1e1e" stroke-width="2" fill="none"></path></g><g transform="translate(591.8736077060013 884.731237169859) rotate(0 37.214256286621094 23.213725783098482)"><text x="0" y="32.53635805759081" font-family="Virgil, Segoe UI Emoji" font-size="37.14196125295755px" fill="#1e1e1e" text-anchor="start" style="white-space: pre;" direction="ltr" dominant-baseline="alphabetic">login</text></g><g stroke-linecap="round"><g transform="translate(744.1245249474578 898.969715075258) rotate(0 645.0750634926692 -52.793518866332874)"><path d="M-0.45 0.19 C182.36 -4.15, 882.84 -8.12, 1097.84 -25.71 C1312.84 -43.29, 1257.49 -91.91, 1289.56 -105.31 M1.52 -0.76 C184.14 -5.45, 882.79 -10.14, 1097.28 -27.32 C1311.78 -44.5, 1256.28 -90.85, 1288.49 -103.85" stroke="#1e1e1e" stroke-width="2" fill="none"></path></g><g transform="translate(744.1245249474578 898.969715075258) rotate(0 645.0750634926692 -52.793518866332874)"><path d="M1280.68 -80.1 C1283.93 -87.99, 1288.25 -99.35, 1288.49 -103.85 M1280.68 -80.1 C1282.65 -87.47, 1286.17 -94.91, 1288.49 -103.85" stroke="#1e1e1e" stroke-width="2" fill="none"></path></g><g transform="translate(744.1245249474578 898.969715075258) rotate(0 645.0750634926692 -52.793518866332874)"><path d="M1267.24 -90.68 C1275.7 -94.44, 1285.2 -101.73, 1288.49 -103.85 M1267.24 -90.68 C1273.56 -94.57, 1281.42 -98.6, 1288.49 -103.85" stroke="#1e1e1e" stroke-width="2" fill="none"></path></g></g><mask></mask><g stroke-linecap="round" transform="translate(2032.1711137241655 721.6179530207849) rotate(0 143.48839732140743 77.74138580902957)"><path d="M32 0 C110.64 2.15, 189.33 0.39, 254.98 0 M32 0 C79.96 -0.31, 126.53 -1.33, 254.98 0 M254.98 0 C277.29 -0.3, 288.62 9.04, 286.98 32 M254.98 0 C277.77 -1.13, 287.96 12.29, 286.98 32 M286.98 32 C289.64 66.48, 288.01 103.54, 286.98 123.48 M286.98 32 C288.55 57.43, 288.07 85.07, 286.98 123.48 M286.98 123.48 C288.72 143.59, 276.71 156.32, 254.98 155.48 M286.98 123.48 C287.06 142.92, 276.26 156.75, 254.98 155.48 M254.98 155.48 C167.92 152.99, 84.64 155.26, 32 155.48 M254.98 155.48 C172.23 157.03, 87.9 156.55, 32 155.48 M32 155.48 C10.25 154.8, -0.18 144.7, 0 123.48 M32 155.48 C12.34 157.58, -0.1 144.59, 0 123.48 M0 123.48 C-0.08 90.06, -1.69 56.59, 0 32 M0 123.48 C0.08 96.46, -0.24 68.93, 0 32 M0 32 C1.44 9.56, 10.39 1.17, 32 0 M0 32 C-1.43 12.3, 8.71 0.24, 32 0" stroke="#1e1e1e" stroke-width="2" fill="none"></path></g><g transform="translate(2039.06158013737 729.3593388298145) rotate(0 136.59793090820312 70)"><text x="136.59793090820312" y="24.528" font-family="Virgil, Segoe UI Emoji" font-size="28px" fill="#1e1e1e" text-anchor="middle" style="white-space: pre;" direction="ltr" dominant-baseline="alphabetic">/Login check if user</text><text x="136.59793090820312" y="59.528" font-family="Virgil, Segoe UI Emoji" font-size="28px" fill="#1e1e1e" text-anchor="middle" style="white-space: pre;" direction="ltr" dominant-baseline="alphabetic">exists and decrypt </text><text x="136.59793090820312" y="94.52799999999999" font-family="Virgil, Segoe UI Emoji" font-size="28px" fill="#1e1e1e" text-anchor="middle" style="white-space: pre;" direction="ltr" dominant-baseline="alphabetic">password with </text><text x="136.59793090820312" y="129.528" font-family="Virgil, Segoe UI Emoji" font-size="28px" fill="#1e1e1e" text-anchor="middle" style="white-space: pre;" direction="ltr" dominant-baseline="alphabetic">bycrypt</text></g><g stroke-linecap="round" transform="translate(2439.091854688867 719.8409660010179) rotate(0 180.3600476138081 78.18564951025226)"><path d="M32 0 C117.6 -1.59, 202.4 -1.73, 328.72 0 M32 0 C122.71 -0.38, 213.88 -0.49, 328.72 0 M328.72 0 C351.71 1.47, 361.73 9.04, 360.72 32 M328.72 0 C348.14 2.15, 359.26 10.45, 360.72 32 M360.72 32 C359.17 65.92, 362.57 102.25, 360.72 124.37 M360.72 32 C360.25 61.77, 359.95 92.7, 360.72 124.37 M360.72 124.37 C359.03 145.85, 350.17 156.45, 328.72 156.37 M360.72 124.37 C360.14 144.96, 350.36 158.05, 328.72 156.37 M328.72 156.37 C216.65 157.22, 107.26 157.13, 32 156.37 M328.72 156.37 C244.19 156.17, 160.17 156.64, 32 156.37 M32 156.37 C12.24 157.56, 1.34 144.25, 0 124.37 M32 156.37 C9.44 156.53, -0.2 147.03, 0 124.37 M0 124.37 C1.67 99.24, -1.45 72.04, 0 32 M0 124.37 C-1.26 92.25, -0.79 62.19, 0 32 M0 32 C-1.17 10.89, 9.52 0.22, 32 0 M0 32 C-0.08 10.84, 8.53 1.08, 32 0" stroke="#1e1e1e" stroke-width="2" fill="none"></path></g><g transform="translate(2452.9920329179095 748.0266155112702) rotate(0 166.45986938476562 50)"><text x="166.45986938476562" y="17.52" font-family="Virgil, Segoe UI Emoji" font-size="20px" fill="#1e1e1e" text-anchor="middle" style="white-space: pre;" direction="ltr" dominant-baseline="alphabetic">Creates token and send back </text><text x="166.45986938476562" y="42.519999999999996" font-family="Virgil, Segoe UI Emoji" font-size="20px" fill="#1e1e1e" text-anchor="middle" style="white-space: pre;" direction="ltr" dominant-baseline="alphabetic">HTTP only cookie with token and </text><text x="166.45986938476562" y="67.52" font-family="Virgil, Segoe UI Emoji" font-size="20px" fill="#1e1e1e" text-anchor="middle" style="white-space: pre;" direction="ltr" dominant-baseline="alphabetic">resp user info to store in local </text><text x="166.45986938476562" y="92.52" font-family="Virgil, Segoe UI Emoji" font-size="20px" fill="#1e1e1e" text-anchor="middle" style="white-space: pre;" direction="ltr" dominant-baseline="alphabetic">storage and redux</text></g><g stroke-linecap="round"><g transform="translate(2320.0364357694234 802.4689644367213) rotate(0 60.86043277826593 0)"><path d="M0.82 -1.01 C21.19 -0.79, 102.12 0.53, 122.31 0.63 M-0.21 1.07 C20.05 1.01, 101.41 -1.09, 121.68 -1.16" stroke="#1e1e1e" stroke-width="2" fill="none"></path></g><g transform="translate(2320.0364357694234 802.4689644367213) rotate(0 60.86043277826593 0)"><path d="M98.32 7.76 C103.8 5.87, 113.64 2.63, 121.68 -1.16 M98.32 7.76 C104.67 5.7, 109.77 3.17, 121.68 -1.16" stroke="#1e1e1e" stroke-width="2" fill="none"></path></g><g transform="translate(2320.0364357694234 802.4689644367213) rotate(0 60.86043277826593 0)"><path d="M98.05 -9.34 C103.51 -6.02, 113.44 -4.05, 121.68 -1.16 M98.05 -9.34 C104.36 -6.89, 109.53 -4.93, 121.68 -1.16" stroke="#1e1e1e" stroke-width="2" fill="none"></path></g></g><mask></mask><g transform="translate(2351.132996871548 771.0415439529816) rotate(0 16.059982299804688 12.5)"><text x="0" y="17.52" font-family="Virgil, Segoe UI Emoji" font-size="20px" fill="#1e1e1e" text-anchor="start" style="white-space: pre;" direction="ltr" dominant-baseline="alphabetic">Yes</text></g><g stroke-linecap="round"><g transform="translate(2599.107238100358 875.4643192398378) rotate(0 -1089.8102916596047 103.20923781817919)"><path d="M0.09 0.9 C-34.08 27.25, 157.54 123.65, -205.62 158.04 C-568.78 192.44, -1849.96 199.29, -2178.86 207.28 M-1.32 0.33 C-35.53 26.83, 156.86 125.08, -206.13 159.26 C-569.11 193.44, -1850.5 197.46, -2179.23 205.39" stroke="#1e1e1e" stroke-width="2" fill="none"></path></g><g transform="translate(2599.107238100358 875.4643192398378) rotate(0 -1089.8102916596047 103.20923781817919)"><path d="M-2155.86 196.52 C-2160.25 200.18, -2168.68 202.27, -2179.23 205.39 M-2155.86 196.52 C-2164.13 199.12, -2173.82 202.31, -2179.23 205.39" stroke="#1e1e1e" stroke-width="2" fill="none"></path></g><g transform="translate(2599.107238100358 875.4643192398378) rotate(0 -1089.8102916596047 103.20923781817919)"><path d="M-2155.62 213.62 C-2160.07 212.96, -2168.55 210.75, -2179.23 205.39 M-2155.62 213.62 C-2164.06 209.85, -2173.84 206.68, -2179.23 205.39" stroke="#1e1e1e" stroke-width="2" fill="none"></path></g></g><mask></mask><g transform="translate(1495.5883714733407 1026.4124192238617) rotate(0 161.94989013671875 12.5)"><text x="0" y="17.52" font-family="Virgil, Segoe UI Emoji" font-size="20px" fill="#1e1e1e" text-anchor="start" style="white-space: pre;" direction="ltr" dominant-baseline="alphabetic">HTTP only cookie and user data</text></g><g stroke-linecap="round" transform="translate(2038.2620437965045 457.85516537001763) rotate(0 151.98411273601482 108.8360853106779)"><path d="M32 0 C90.9 -0.99, 146.63 0.1, 271.97 0 M32 0 C87.8 -0.45, 142.74 -1.64, 271.97 0 M271.97 0 C291.55 0.29, 301.99 11.74, 303.97 32 M271.97 0 C292.5 1.21, 305.92 9.22, 303.97 32 M303.97 32 C305.09 72.89, 304.12 116.05, 303.97 185.67 M303.97 32 C304 84.15, 302.65 135.45, 303.97 185.67 M303.97 185.67 C304.07 205.07, 294.8 216.62, 271.97 217.67 M303.97 185.67 C303.7 209.03, 294.76 219.49, 271.97 217.67 M271.97 217.67 C178.99 218.01, 83.55 217.47, 32 217.67 M271.97 217.67 C214.2 217.52, 157.79 217.19, 32 217.67 M32 217.67 C10.63 218.85, 1.16 206.83, 0 185.67 M32 217.67 C12.86 217.17, 0.37 204.83, 0 185.67 M0 185.67 C2.76 134.64, 0.69 80.24, 0 32 M0 185.67 C0.21 132.1, 0.21 77.95, 0 32 M0 32 C0.35 10.78, 12.53 -1.6, 32 0 M0 32 C1.49 8.45, 9.97 -0.55, 32 0" stroke="#1e1e1e" stroke-width="2" fill="none"></path></g><g transform="translate(2077.016275245898 516.6912506806955) rotate(0 113.22988128662098 50)"><text x="113.2298812866211" y="17.52" font-family="Virgil, Segoe UI Emoji" font-size="20px" fill="#1e1e1e" text-anchor="middle" style="white-space: pre;" direction="ltr" dominant-baseline="alphabetic">Accessibility to routes:</text><text x="113.2298812866211" y="42.519999999999996" font-family="Virgil, Segoe UI Emoji" font-size="20px" fill="#1e1e1e" text-anchor="middle" style="white-space: pre;" direction="ltr" dominant-baseline="alphabetic">1. Profile</text><text x="113.2298812866211" y="67.52" font-family="Virgil, Segoe UI Emoji" font-size="20px" fill="#1e1e1e" text-anchor="middle" style="white-space: pre;" direction="ltr" dominant-baseline="alphabetic">2. Cart</text><text x="113.2298812866211" y="92.52" font-family="Virgil, Segoe UI Emoji" font-size="20px" fill="#1e1e1e" text-anchor="middle" style="white-space: pre;" direction="ltr" dominant-baseline="alphabetic">3. Order</text></g><g stroke-linecap="round" transform="translate(547.3750256433789 1238.1692282695417) rotate(0 100.82306303561737 69.74227895178257)"><path d="M32 0 C62.37 0.27, 90.68 0.78, 169.65 0 M32 0 C73.05 -1, 116.87 -0.59, 169.65 0 M169.65 0 C191.41 -1.97, 201.51 11.18, 201.65 32 M169.65 0 C191.63 0.35, 200.47 8.94, 201.65 32 M201.65 32 C199.74 63.4, 202.89 90.42, 201.65 107.48 M201.65 32 C202.74 58.64, 202.51 83.35, 201.65 107.48 M201.65 107.48 C199.84 129.34, 189.28 138.03, 169.65 139.48 M201.65 107.48 C200.46 130.03, 190.41 141.13, 169.65 139.48 M169.65 139.48 C117.49 140.9, 63.64 139.31, 32 139.48 M169.65 139.48 C119.69 138.49, 69.83 138.66, 32 139.48 M32 139.48 C10.24 139.57, 1.28 129.25, 0 107.48 M32 139.48 C9.18 139.81, -2.2 126.79, 0 107.48 M0 107.48 C1.07 89.61, 0.42 73.67, 0 32 M0 107.48 C-0.53 77.47, -0.42 49.02, 0 32 M0 32 C-1.97 12.12, 8.96 -1.24, 32 0 M0 32 C0 9.22, 8.81 0.2, 32 0" stroke="#1e1e1e" stroke-width="2" fill="none"></path></g><g transform="translate(607.8981314036056 1295.4115072213244) rotate(0 40.299957275390625 12.5)"><text x="40.299957275390625" y="17.52" font-family="Virgil, Segoe UI Emoji" font-size="20px" fill="#1e1e1e" text-anchor="middle" style="white-space: pre;" direction="ltr" dominant-baseline="alphabetic">Register</text></g><g stroke-linecap="round"><g transform="translate(752.0534938642716 1306.395365064502) rotate(0 696.6646172263924 -1.5159610876195302)"><path d="M0.79 0.79 C232.78 0.2, 1160.54 -3.36, 1392.67 -4.13 M-0.26 0.16 C232.07 -0.27, 1162.84 -2.66, 1395.04 -3.17" stroke="#1e1e1e" stroke-width="2" fill="none"></path></g><g transform="translate(752.0534938642716 1306.395365064502) rotate(0 696.6646172263924 -1.5159610876195302)"><path d="M1371.57 5.43 C1381.34 1.1, 1386.6 -0.51, 1395.04 -3.17 M1371.57 5.43 C1376.65 3.01, 1383.04 1.87, 1395.04 -3.17" stroke="#1e1e1e" stroke-width="2" fill="none"></path></g><g transform="translate(752.0534938642716 1306.395365064502) rotate(0 696.6646172263924 -1.5159610876195302)"><path d="M1371.52 -11.67 C1381.23 -9.87, 1386.51 -5.35, 1395.04 -3.17 M1371.52 -11.67 C1376.57 -10.09, 1382.97 -7.22, 1395.04 -3.17" stroke="#1e1e1e" stroke-width="2" fill="none"></path></g></g><mask></mask><g stroke-linecap="round" transform="translate(2159.572421273047 1233.9604334273417) rotate(0 143.48839732140743 92.5)"><path d="M32 0 C92.62 1.58, 155.38 0.91, 254.98 0 M32 0 C113.97 2.48, 197.17 1.59, 254.98 0 M254.98 0 C277.28 1, 285.01 9.52, 286.98 32 M254.98 0 C275.46 -2.28, 286.76 8.46, 286.98 32 M286.98 32 C288.92 59.34, 289.85 85.3, 286.98 153 M286.98 32 C287.66 62.05, 288.8 90.44, 286.98 153 M286.98 153 C285.78 175.28, 277.44 186.68, 254.98 185 M286.98 153 C288.39 175.47, 274.96 185.06, 254.98 185 M254.98 185 C198.42 186.1, 136.95 187.17, 32 185 M254.98 185 C190.28 185.35, 124.27 184.44, 32 185 M32 185 C11.55 186.87, 1.74 175.7, 0 153 M32 185 C8.87 186.13, 1.47 172.53, 0 153 M0 153 C2.67 124.7, 0.86 99.16, 0 32 M0 153 C0.46 119.26, 0.88 83.61, 0 32 M0 32 C1.53 9.44, 9.11 -0.41, 32 0 M0 32 C-1.9 11.44, 8.67 1.39, 32 0" stroke="#1e1e1e" stroke-width="2" fill="none"></path></g><g transform="translate(2176.7948731598844 1238.9604334273417) rotate(0 126.26594543457031 87.5)"><text x="126.26594543457031" y="24.528" font-family="Virgil, Segoe UI Emoji" font-size="28px" fill="#1e1e1e" text-anchor="middle" style="white-space: pre;" direction="ltr" dominant-baseline="alphabetic">/register check if </text><text x="126.26594543457031" y="59.528" font-family="Virgil, Segoe UI Emoji" font-size="28px" fill="#1e1e1e" text-anchor="middle" style="white-space: pre;" direction="ltr" dominant-baseline="alphabetic">email exists and </text><text x="126.26594543457031" y="94.52799999999999" font-family="Virgil, Segoe UI Emoji" font-size="28px" fill="#1e1e1e" text-anchor="middle" style="white-space: pre;" direction="ltr" dominant-baseline="alphabetic">encrypt password </text><text x="126.26594543457031" y="129.528" font-family="Virgil, Segoe UI Emoji" font-size="28px" fill="#1e1e1e" text-anchor="middle" style="white-space: pre;" direction="ltr" dominant-baseline="alphabetic">with bycrypt and </text><text x="126.26594543457031" y="164.528" font-family="Virgil, Segoe UI Emoji" font-size="28px" fill="#1e1e1e" text-anchor="middle" style="white-space: pre;" direction="ltr" dominant-baseline="alphabetic">stores into db</text></g><g stroke-linecap="round"><g transform="translate(2448.6100029613235 1317.0082734082412) rotate(0 122.80708093253565 -218.32363196027075)"><path d="M-0.2 1.11 C39.67 -9.83, 197.41 6.26, 238.43 -66.82 C279.46 -139.91, 244.92 -375.61, 245.92 -437.39 M-1.77 0.65 C38.05 -9.99, 196.52 7.51, 237.7 -65.34 C278.88 -138.2, 244.25 -374.54, 245.31 -436.47" stroke="#1e1e1e" stroke-width="2" fill="none"></path></g><g transform="translate(2448.6100029613235 1317.0082734082412) rotate(0 122.80708093253565 -218.32363196027075)"><path d="M255.27 -413.54 C255.02 -418.26, 250.64 -423.79, 245.31 -436.47 M255.27 -413.54 C252.41 -418.82, 249.94 -425.45, 245.31 -436.47" stroke="#1e1e1e" stroke-width="2" fill="none"></path></g><g transform="translate(2448.6100029613235 1317.0082734082412) rotate(0 122.80708093253565 -218.32363196027075)"><path d="M238.2 -412.5 C241.96 -417.44, 241.58 -423.21, 245.31 -436.47 M238.2 -412.5 C239.4 -417.91, 241 -424.78, 245.31 -436.47" stroke="#1e1e1e" stroke-width="2" fill="none"></path></g></g><mask></mask><g transform="translate(2533.513616727313 1250.29830768811) rotate(0 22.40998077392578 12.5)"><text x="0" y="17.52" font-family="Virgil, Segoe UI Emoji" font-size="20px" fill="#1e1e1e" text-anchor="start" style="white-space: pre;" direction="ltr" dominant-baseline="alphabetic">valid</text></g><g stroke-linecap="round"><g transform="translate(2307.609273982929 1417.0733087424567) rotate(0 -751.068303284557 47.000262271468955)"><path d="M-1.18 -0.35 C-24.86 15.43, 108.29 84.97, -142.03 94.12 C-392.34 103.27, -1276.49 60.9, -1503.09 54.55 M0.4 -1.58 C-22.93 14.46, 110.33 86.18, -139.85 95.72 C-390.03 105.26, -1273.82 62.61, -1500.69 55.66" stroke="#1e1e1e" stroke-width="2" fill="none"></path></g><g transform="translate(2307.609273982929 1417.0733087424567) rotate(0 -751.068303284557 47.000262271468955)"><path d="M-1476.88 48.03 C-1484.77 48.42, -1491.25 50.88, -1500.69 55.66 M-1476.88 48.03 C-1482.37 49.4, -1489.31 52.95, -1500.69 55.66" stroke="#1e1e1e" stroke-width="2" fill="none"></path></g><g transform="translate(2307.609273982929 1417.0733087424567) rotate(0 -751.068303284557 47.000262271468955)"><path d="M-1477.55 65.12 C-1485.16 60.3, -1491.43 57.54, -1500.69 55.66 M-1477.55 65.12 C-1482.94 61.91, -1489.7 60.88, -1500.69 55.66" stroke="#1e1e1e" stroke-width="2" fill="none"></path></g></g><mask></mask><g transform="translate(1425.2180667089488 1432.2347303106826) rotate(0 62.70995330810547 12.5)"><text x="0" y="17.52" font-family="Virgil, Segoe UI Emoji" font-size="20px" fill="#1e1e1e" text-anchor="start" style="white-space: pre;" direction="ltr" dominant-baseline="alphabetic">Invalid Error</text></g><g stroke-linecap="round"><g transform="translate(2187.834593036064 877.3288408460799) rotate(0 -694.3904473681682 51.54863090592403)"><path d="M0.1 0.57 C-30.47 13.84, 48.34 62.73, -183.09 79.86 C-414.52 97, -1187.67 99.41, -1388.48 103.38 M-1.31 -0.18 C-31.55 13.23, 50.31 63.64, -180.99 81.14 C-412.28 98.65, -1188.04 101.47, -1389.09 104.84" stroke="#1e1e1e" stroke-width="2" fill="none"></path></g><g transform="translate(2187.834593036064 877.3288408460799) rotate(0 -694.3904473681682 51.54863090592403)"><path d="M-1365.69 96.04 C-1372.32 96.99, -1381.68 102.27, -1389.09 104.84 M-1365.69 96.04 C-1372.76 100, -1379.77 101.18, -1389.09 104.84" stroke="#1e1e1e" stroke-width="2" fill="none"></path></g><g transform="translate(2187.834593036064 877.3288408460799) rotate(0 -694.3904473681682 51.54863090592403)"><path d="M-1365.51 113.14 C-1372.23 108.54, -1381.65 108.27, -1389.09 104.84 M-1365.51 113.14 C-1372.75 111.57, -1379.82 107.22, -1389.09 104.84" stroke="#1e1e1e" stroke-width="2" fill="none"></path></g></g><mask></mask><g transform="translate(1455.8174497025293 928.5065800885785) rotate(0 62.70995330810547 12.5)"><text x="0" y="17.52" font-family="Virgil, Segoe UI Emoji" font-size="20px" fill="#1e1e1e" text-anchor="start" style="white-space: pre;" direction="ltr" dominant-baseline="alphabetic">Invalid Error</text></g><g stroke-linecap="round" transform="translate(102.67429359076311 844.7523179193277) rotate(0 156.11749462306994 208.33990020218138)"><path d="M32 0 C118.78 -0.46, 206.28 -2.09, 280.23 0 M32 0 C105.38 1.28, 180.01 0.71, 280.23 0 M280.23 0 C300.44 -1.12, 312.76 9.07, 312.23 32 M280.23 0 C303.29 -0.68, 310.12 8.46, 312.23 32 M312.23 32 C311.55 131.42, 311.37 232.24, 312.23 384.68 M312.23 32 C312.52 119.4, 313.24 206.05, 312.23 384.68 M312.23 384.68 C314.02 406.28, 302.26 417.55, 280.23 416.68 M312.23 384.68 C313.89 407.44, 301.65 414.44, 280.23 416.68 M280.23 416.68 C209.44 416.74, 142.45 415.66, 32 416.68 M280.23 416.68 C217.63 415.53, 154.2 414.84, 32 416.68 M32 416.68 C8.8 414.75, 1.38 407.16, 0 384.68 M32 416.68 C10.42 414.6, -0.98 407.5, 0 384.68 M0 384.68 C-1.51 272.73, -0.95 158.94, 0 32 M0 384.68 C2.63 274.63, 1.73 163.91, 0 32 M0 32 C0.69 9.97, 12.37 0.8, 32 0 M0 32 C-1.48 11.46, 9.85 -0.68, 32 0" stroke="#1e1e1e" stroke-width="2" fill="none"></path></g><g transform="translate(123.05188953219243 1015.5922181215091) rotate(0 135.73989868164062 37.5)"><text x="135.73989868164062" y="17.52" font-family="Virgil, Segoe UI Emoji" font-size="20px" fill="#1e1e1e" text-anchor="middle" style="white-space: pre;" direction="ltr" dominant-baseline="alphabetic">Sets Local Storage with </text><text x="135.73989868164062" y="42.519999999999996" font-family="Virgil, Segoe UI Emoji" font-size="20px" fill="#1e1e1e" text-anchor="middle" style="white-space: pre;" direction="ltr" dominant-baseline="alphabetic">User Info and set states </text><text x="135.73989868164062" y="67.52" font-family="Virgil, Segoe UI Emoji" font-size="20px" fill="#1e1e1e" text-anchor="middle" style="white-space: pre;" direction="ltr" dominant-baseline="alphabetic">using RTK</text></g><g transform="translate(220.00931744075342 10) rotate(0 1295.41845703125 66.46048660388897)"><text x="0" y="93.1510180240108" font-family="Virgil, Segoe UI Emoji" font-size="106.33677856622238px" fill="#1e1e1e" text-anchor="start" style="white-space: pre;" direction="ltr" dominant-baseline="alphabetic">Auth Process in MedNepal using JWT and bycrypt</text></g></svg>